<svg width="677" height="543" xmlns="http://www.w3.org/2000/svg" xmlns:xlink="http://www.w3.org/1999/xlink" xml:space="preserve" overflow="hidden"><defs><clipPath id="clip0"><rect x="1013" y="636" width="677" height="543"/></clipPath></defs><g clip-path="url(#clip0)" transform="translate(-1013 -636)"><path d="M1015.5 663.5C1015.5 649.693 1027.36 638.5 1042 638.5 1056.64 638.5 1068.5 649.693 1068.5 663.5 1068.5 677.307 1056.64 688.5 1042 688.5 1027.36 688.5 1015.5 677.307 1015.5 663.5Z" stroke="#000000" stroke-width="4.58333" stroke-miterlimit="8" fill-rule="evenodd"/><path d="M1324.5 663.5C1324.5 649.693 1336.36 638.5 1351 638.5 1365.64 638.5 1377.5 649.693 1377.5 663.5 1377.5 677.307 1365.64 688.5 1351 688.5 1336.36 688.5 1324.5 677.307 1324.5 663.5Z" stroke="#000000" stroke-width="4.58333" stroke-miterlimit="8" fill-rule="evenodd"/><path d="M1015.5 907.5C1015.5 893.693 1027.36 882.5 1042 882.5 1056.64 882.5 1068.5 893.693 1068.5 907.5 1068.5 921.307 1056.64 932.5 1042 932.5 1027.36 932.5 1015.5 921.307 1015.5 907.5Z" stroke="#000000" stroke-width="4.58333" stroke-miterlimit="8" fill-rule="evenodd"/><path d="M1324.5 907.5C1324.5 893.693 1336.36 882.5 1351 882.5 1365.64 882.5 1377.5 893.693 1377.5 907.5 1377.5 921.307 1365.64 932.5 1351 932.5 1336.36 932.5 1324.5 921.307 1324.5 907.5Z" stroke="#000000" stroke-width="4.58333" stroke-miterlimit="8" fill-rule="evenodd"/><path d="M1324.5 907.5C1324.5 893.693 1336.36 882.5 1351 882.5 1365.64 882.5 1377.5 893.693 1377.5 907.5 1377.5 921.307 1365.64 932.5 1351 932.5 1336.36 932.5 1324.5 921.307 1324.5 907.5Z" stroke="#000000" stroke-width="4.58333" stroke-miterlimit="8" fill-rule="evenodd"/><path d="M1634.5 907.5C1634.5 893.693 1646.36 882.5 1661 882.5 1675.64 882.5 1687.5 893.693 1687.5 907.5 1687.5 921.307 1675.64 932.5 1661 932.5 1646.36 932.5 1634.5 921.307 1634.5 907.5Z" stroke="#000000" stroke-width="4.58333" stroke-miterlimit="8" fill-rule="evenodd"/><path d="M1324.5 1151.5C1324.5 1137.69 1336.36 1126.5 1351 1126.5 1365.64 1126.5 1377.5 1137.69 1377.5 1151.5 1377.5 1165.31 1365.64 1176.5 1351 1176.5 1336.36 1176.5 1324.5 1165.31 1324.5 1151.5Z" stroke="#000000" stroke-width="4.58333" stroke-miterlimit="8" fill-rule="evenodd"/><path d="M1634.5 1151.5C1634.5 1137.69 1646.36 1126.5 1661 1126.5 1675.64 1126.5 1687.5 1137.69 1687.5 1151.5 1687.5 1165.31 1675.64 1176.5 1661 1176.5 1646.36 1176.5 1634.5 1165.31 1634.5 1151.5Z" stroke="#000000" stroke-width="4.58333" stroke-miterlimit="8" fill-rule="evenodd"/><path d="M1015.5 907.5C1015.5 893.693 1027.36 882.5 1042 882.5 1056.64 882.5 1068.5 893.693 1068.5 907.5 1068.5 921.307 1056.64 932.5 1042 932.5 1027.36 932.5 1015.5 921.307 1015.5 907.5Z" stroke="#000000" stroke-width="4.58333" stroke-miterlimit="8" fill-rule="evenodd"/><path d="M1324.5 907.5C1324.5 893.693 1336.36 882.5 1351 882.5 1365.64 882.5 1377.5 893.693 1377.5 907.5 1377.5 921.307 1365.64 932.5 1351 932.5 1336.36 932.5 1324.5 921.307 1324.5 907.5Z" stroke="#000000" stroke-width="4.58333" stroke-miterlimit="8" fill-rule="evenodd"/><path d="M1015.5 1151.5C1015.5 1137.69 1027.36 1126.5 1042 1126.5 1056.64 1126.5 1068.5 1137.69 1068.5 1151.5 1068.5 1165.31 1056.64 1176.5 1042 1176.5 1027.36 1176.5 1015.5 1165.31 1015.5 1151.5Z" stroke="#000000" stroke-width="4.58333" stroke-miterlimit="8" fill-rule="evenodd"/><path d="M1324.5 1151.5C1324.5 1137.69 1336.36 1126.5 1351 1126.5 1365.64 1126.5 1377.5 1137.69 1377.5 1151.5 1377.5 1165.31 1365.64 1176.5 1351 1176.5 1336.36 1176.5 1324.5 1165.31 1324.5 1151.5Z" stroke="#000000" stroke-width="4.58333" stroke-miterlimit="8" fill-rule="evenodd"/><path d="M1324.5 663.5C1324.5 649.693 1336.36 638.5 1351 638.5 1365.64 638.5 1377.5 649.693 1377.5 663.5 1377.5 677.307 1365.64 688.5 1351 688.5 1336.36 688.5 1324.5 677.307 1324.5 663.5Z" stroke="#000000" stroke-width="4.58333" stroke-miterlimit="8" fill-rule="evenodd"/><path d="M1634.5 663.5C1634.5 649.693 1646.36 638.5 1661 638.5 1675.64 638.5 1687.5 649.693 1687.5 663.5 1687.5 677.307 1675.64 688.5 1661 688.5 1646.36 688.5 1634.5 677.307 1634.5 663.5Z" stroke="#000000" stroke-width="4.58333" stroke-miterlimit="8" fill-rule="evenodd"/><path d="M1634.5 907.5C1634.5 893.693 1646.36 882.5 1661 882.5 1675.64 882.5 1687.5 893.693 1687.5 907.5 1687.5 921.307 1675.64 932.5 1661 932.5 1646.36 932.5 1634.5 921.307 1634.5 907.5Z" stroke="#000000" stroke-width="4.58333" stroke-miterlimit="8" fill-rule="evenodd"/><path d="M3.22498e-06-2.29167 233.533-2.29134 233.533 2.292-3.22498e-06 2.29167ZM228.95-13.7497 256.45 0.000360892 228.95 13.7503Z" fill="#ED7D31" transform="matrix(1 0 0 -1 1377.5 907.5)"/><path d="M1353.79 932.5 1353.79 1103.83 1349.21 1103.83 1349.21 932.5ZM1365.25 1099.25 1351.5 1126.75 1337.75 1099.25Z" fill="#ED7D31"/><path d="M3.22498e-06-2.29167 233.533-2.29134 233.533 2.292-3.22498e-06 2.29167ZM228.95-13.7497 256.45 0.000360892 228.95 13.7503Z" fill="#ED7D31" transform="matrix(-1 0 0 1 1324.95 907.5)"/><path d="M2.29167-4.25762e-06 2.29198 171.334-2.29135 171.334-2.29167 4.25762e-06ZM13.7503 166.751 0.000360892 194.251-13.7497 166.751Z" fill="#ED7D31" transform="matrix(1 0 0 -1 1351.5 882.751)"/><path d="M1324.5 907.5C1324.5 893.693 1336.36 882.5 1351 882.5 1365.64 882.5 1377.5 893.693 1377.5 907.5 1377.5 921.307 1365.64 932.5 1351 932.5 1336.36 932.5 1324.5 921.307 1324.5 907.5Z" stroke="#000000" stroke-width="4.58333" stroke-miterlimit="8" fill-rule="evenodd"/></g></svg>