<svg width="677" height="543" xmlns="http://www.w3.org/2000/svg" xmlns:xlink="http://www.w3.org/1999/xlink" xml:space="preserve" overflow="hidden"><defs><clipPath id="clip0"><rect x="2173" y="636" width="677" height="543"/></clipPath></defs><g clip-path="url(#clip0)" transform="translate(-2173 -636)"><path d="M2175.5 663.5C2175.5 649.693 2187.36 638.5 2202 638.5 2216.64 638.5 2228.5 649.693 2228.5 663.5 2228.5 677.307 2216.64 688.5 2202 688.5 2187.36 688.5 2175.5 677.307 2175.5 663.5Z" stroke="#000000" stroke-width="4.58333" stroke-miterlimit="8" fill-rule="evenodd"/><path d="M2484.5 663.5C2484.5 649.693 2496.36 638.5 2511 638.5 2525.64 638.5 2537.5 649.693 2537.5 663.5 2537.5 677.307 2525.64 688.5 2511 688.5 2496.36 688.5 2484.5 677.307 2484.5 663.5Z" stroke="#000000" stroke-width="4.58333" stroke-miterlimit="8" fill-rule="evenodd"/><path d="M2175.5 907.5C2175.5 893.693 2187.36 882.5 2202 882.5 2216.64 882.5 2228.5 893.693 2228.5 907.5 2228.5 921.307 2216.64 932.5 2202 932.5 2187.36 932.5 2175.5 921.307 2175.5 907.5Z" stroke="#000000" stroke-width="4.58333" stroke-miterlimit="8" fill-rule="evenodd"/><path d="M2484.5 907.5C2484.5 893.693 2496.36 882.5 2511 882.5 2525.64 882.5 2537.5 893.693 2537.5 907.5 2537.5 921.307 2525.64 932.5 2511 932.5 2496.36 932.5 2484.5 921.307 2484.5 907.5Z" stroke="#000000" stroke-width="4.58333" stroke-miterlimit="8" fill-rule="evenodd"/><path d="M2484.5 907.5C2484.5 893.693 2496.36 882.5 2511 882.5 2525.64 882.5 2537.5 893.693 2537.5 907.5 2537.5 921.307 2525.64 932.5 2511 932.5 2496.36 932.5 2484.5 921.307 2484.5 907.5Z" stroke="#000000" stroke-width="4.58333" stroke-miterlimit="8" fill-rule="evenodd"/><path d="M2794.5 907.5C2794.5 893.693 2806.36 882.5 2821 882.5 2835.64 882.5 2847.5 893.693 2847.5 907.5 2847.5 921.307 2835.64 932.5 2821 932.5 2806.36 932.5 2794.5 921.307 2794.5 907.5Z" stroke="#000000" stroke-width="4.58333" stroke-miterlimit="8" fill-rule="evenodd"/><path d="M2484.5 1151.5C2484.5 1137.69 2496.36 1126.5 2511 1126.5 2525.64 1126.5 2537.5 1137.69 2537.5 1151.5 2537.5 1165.31 2525.64 1176.5 2511 1176.5 2496.36 1176.5 2484.5 1165.31 2484.5 1151.5Z" stroke="#000000" stroke-width="4.58333" stroke-miterlimit="8" fill-rule="evenodd"/><path d="M2794.5 1151.5C2794.5 1137.69 2806.36 1126.5 2821 1126.5 2835.64 1126.5 2847.5 1137.69 2847.5 1151.5 2847.5 1165.31 2835.64 1176.5 2821 1176.5 2806.36 1176.5 2794.5 1165.31 2794.5 1151.5Z" stroke="#000000" stroke-width="4.58333" stroke-miterlimit="8" fill-rule="evenodd"/><path d="M2175.5 907.5C2175.5 893.693 2187.36 882.5 2202 882.5 2216.64 882.5 2228.5 893.693 2228.5 907.5 2228.5 921.307 2216.64 932.5 2202 932.5 2187.36 932.5 2175.5 921.307 2175.5 907.5Z" stroke="#000000" stroke-width="4.58333" stroke-miterlimit="8" fill-rule="evenodd"/><path d="M2484.5 907.5C2484.5 893.693 2496.36 882.5 2511 882.5 2525.64 882.5 2537.5 893.693 2537.5 907.5 2537.5 921.307 2525.64 932.5 2511 932.5 2496.36 932.5 2484.5 921.307 2484.5 907.5Z" stroke="#000000" stroke-width="4.58333" stroke-miterlimit="8" fill-rule="evenodd"/><path d="M2175.5 1151.5C2175.5 1137.69 2187.36 1126.5 2202 1126.5 2216.64 1126.5 2228.5 1137.69 2228.5 1151.5 2228.5 1165.31 2216.64 1176.5 2202 1176.5 2187.36 1176.5 2175.5 1165.31 2175.5 1151.5Z" stroke="#000000" stroke-width="4.58333" stroke-miterlimit="8" fill-rule="evenodd"/><path d="M2484.5 1151.5C2484.5 1137.69 2496.36 1126.5 2511 1126.5 2525.64 1126.5 2537.5 1137.69 2537.5 1151.5 2537.5 1165.31 2525.64 1176.5 2511 1176.5 2496.36 1176.5 2484.5 1165.31 2484.5 1151.5Z" stroke="#000000" stroke-width="4.58333" stroke-miterlimit="8" fill-rule="evenodd"/><path d="M2484.5 663.5C2484.5 649.693 2496.36 638.5 2511 638.5 2525.64 638.5 2537.5 649.693 2537.5 663.5 2537.5 677.307 2525.64 688.5 2511 688.5 2496.36 688.5 2484.5 677.307 2484.5 663.5Z" stroke="#000000" stroke-width="4.58333" stroke-miterlimit="8" fill-rule="evenodd"/><path d="M2794.5 663.5C2794.5 649.693 2806.36 638.5 2821 638.5 2835.64 638.5 2847.5 649.693 2847.5 663.5 2847.5 677.307 2835.64 688.5 2821 688.5 2806.36 688.5 2794.5 677.307 2794.5 663.5Z" stroke="#000000" stroke-width="4.58333" stroke-miterlimit="8" fill-rule="evenodd"/><path d="M2794.5 907.5C2794.5 893.693 2806.36 882.5 2821 882.5 2835.64 882.5 2847.5 893.693 2847.5 907.5 2847.5 921.307 2835.64 932.5 2821 932.5 2806.36 932.5 2794.5 921.307 2794.5 907.5Z" stroke="#000000" stroke-width="4.58333" stroke-miterlimit="8" fill-rule="evenodd"/><path d="M3.22498e-06-2.29167 233.533-2.29134 233.533 2.292-3.22498e-06 2.29167ZM228.95-13.7497 256.45 0.000360892 228.95 13.7503Z" fill="#ED7D31" transform="matrix(1 0 0 -1 2537.5 907.5)"/><path d="M2513.79 932.5 2513.79 1103.83 2509.21 1103.83 2509.21 932.5ZM2525.25 1099.25 2511.5 1126.75 2497.75 1099.25Z" fill="#ED7D31"/><path d="M3.22498e-06-2.29167 233.533-2.29134 233.533 2.292-3.22498e-06 2.29167ZM228.95-13.7497 256.45 0.000360892 228.95 13.7503Z" fill="#ED7D31" transform="matrix(-1 0 0 1 2484.95 907.5)"/><path d="M2.29167-4.25762e-06 2.29198 171.334-2.29135 171.334-2.29167 4.25762e-06ZM13.7503 166.751 0.000360892 194.251-13.7497 166.751Z" fill="#ED7D31" transform="matrix(1 0 0 -1 2511.5 882.751)"/><path d="M2491.06 892.157 2237.28 697.275 2240.07 693.64 2493.85 888.522ZM2233.94 709.155 2220.5 681.5 2250.69 687.344Z" fill="#ED7D31"/><path d="M1.39577-1.81757 255.171 193.065 252.379 196.7-1.39577 1.81757ZM258.515 181.185 271.951 208.84 241.765 202.996Z" fill="#ED7D31" transform="matrix(-1 0 0 1 2492.45 925.5)"/><path d="M2531.9 923.682 2785.67 1118.56 2782.88 1122.2 2529.1 927.317ZM2789.02 1106.69 2802.45 1134.34 2772.27 1128.5Z" fill="#ED7D31"/><path d="M1.39577-1.81757 255.171 193.065 252.38 196.7-1.39577 1.81757ZM258.515 181.186 271.952 208.84 241.766 202.997Z" fill="#ED7D31" transform="matrix(1 0 0 -1 2530.5 890.341)"/><path d="M2484.5 907.5C2484.5 893.693 2496.36 882.5 2511 882.5 2525.64 882.5 2537.5 893.693 2537.5 907.5 2537.5 921.307 2525.64 932.5 2511 932.5 2496.36 932.5 2484.5 921.307 2484.5 907.5Z" stroke="#000000" stroke-width="4.58333" stroke-miterlimit="8" fill-rule="evenodd"/></g></svg>